<?xml version="1.0" encoding="UTF-8"?> <!-- Generator: Adobe Illustrator 24.0.2, SVG Export Plug-In . SVG Version: 6.00 Build 0) --> <svg xmlns="http://www.w3.org/2000/svg" xmlns:xlink="http://www.w3.org/1999/xlink" version="1.1" id="Capa_1" x="0px" y="0px" viewBox="0 0 512 512" style="enable-background:new 0 0 512 512;" xml:space="preserve"> <style type="text/css"> .st0{fill:#D1D1D1;} </style> <g> <g> <path class="st0" d="M400,368c-13.3,0-24,10.7-24,24s10.7,24,24,24s24-10.7,24-24C424,378.8,413.2,368,400,368z M400,400 c-4.4,0-8-3.6-8-8s3.6-8,8-8s8,3.6,8,8C408,396.4,404.4,400,400,400z"></path> <path class="st0" d="M112,416c13.3,0,24-10.7,24-24s-10.7-24-24-24s-24,10.7-24,24C88,405.2,98.8,416,112,416z M112,384 c4.4,0,8,3.6,8,8s-3.6,8-8,8s-8-3.6-8-8C104,387.6,107.6,384,112,384z"></path> <path class="st0" d="M495,276l-64-112c-1.4-2.5-4.1-4-7-4h-88v-56c0-4.4-3.6-8-8-8h-77c-39.7-41.4-105.4-42.8-146.8-3.2 c-1.1,1-2.1,2.1-3.2,3.2H24c-4.4,0-8,3.6-8,8v288c0,4.4,3.6,8,8,8h40.7c2.2,13.1,9.8,24.7,20.8,32H16c-4.4,0-8,3.6-8,8s3.6,8,8,8 h447c4.4,0,8-3.6,8-8s-3.6-8-8-8h-36.5c11.1-7.3,18.6-18.9,20.8-32H488c4.4,0,8-3.6,8-8V280C496,278.6,495.6,277.2,495,276 L495,276z M433.1,200l41.1,72H376v-72H433.1z M109.2,110.8c1.3-0.8,2.4-2,3.1-3.4c33.5-35.2,89.2-36.6,124.4-3.1 s36.6,89.2,3.1,124.4s-89.2,36.6-124.4,3.1C81.4,199.5,78.7,146.4,109.2,110.8z M32,112h56.4c-31,48.4-16.8,112.7,31.5,143.7 s112.7,16.8,143.7-31.5c21.9-34.2,21.9-77.9,0-112.1H320v208H32V112z M64.7,384H32v-48h288v48H159.3 c-4.4-26.1-29.2-43.7-55.3-39.3C83.9,348.1,68.1,363.9,64.7,384z M112,424c-17.7,0-32-14.3-32-32s14.3-32,32-32s32,14.3,32,32 C144,409.7,129.7,424,112,424z M138.5,432c11.1-7.3,18.6-18.9,20.8-32h193.4c2.2,13.1,9.8,24.7,20.8,32H138.5z M400,424 c-17.7,0-32-14.3-32-32s14.3-32,32-32s32,14.3,32,32C432,409.7,417.7,424,400,424z M480,328h-16c-4.4,0-8-3.6-8-8s3.6-8,8-8h16 V328z M480,296h-16c-13.3,0-24,10.7-24,24s10.7,24,24,24h16v40h-32.7c-4.4-26.1-29.2-43.7-55.3-39.3 c-20.1,3.4-35.9,19.2-39.3,39.3H336V176h83.4l4.6,8H368c-4.4,0-8,3.6-8,8v88c0,4.4,3.6,8,8,8h112V296z"></path> <path class="st0" d="M495,432h-8c-4.4,0-8,3.6-8,8s3.6,8,8,8h8c4.4,0,8-3.6,8-8S499.4,432,495,432z"></path> <path class="st0" d="M123.2,198.4l32,24c3.3,2.5,8.1,2,10.8-1.1l56-64c2.9-3.3,2.6-8.4-0.8-11.3c-3.3-2.9-8.4-2.6-11.3,0.8l0,0 l-51.1,58.4l-26.1-19.5c-3.5-2.7-8.5-1.9-11.2,1.6C118.9,190.7,119.7,195.7,123.2,198.4z"></path> </g> </g> </svg> 