<?xml version="1.0" encoding="UTF-8"?> <!-- Generator: Adobe Illustrator 24.0.2, SVG Export Plug-In . SVG Version: 6.00 Build 0) --> <svg xmlns="http://www.w3.org/2000/svg" xmlns:xlink="http://www.w3.org/1999/xlink" version="1.1" id="Capa_1" x="0px" y="0px" viewBox="0 0 512 512" style="enable-background:new 0 0 512 512;" xml:space="preserve"> <style type="text/css"> .st0{fill-rule:evenodd;clip-rule:evenodd;fill:#D1D1D1;} </style> <g> <path class="st0" d="M494.4,216.2c-2.4-1.9-5.4-2.6-8.4-2l-152.6,32.7l-17.1-3.7l45.2-90.5c0.1-0.1,0.1-0.3,0.2-0.4 c6.1-13.8,9.1-28.5,9.1-43.6C370.8,48.7,322.1,0,262.2,0S153.6,48.7,153.6,108.6c0,15.2,3.1,29.8,9.1,43.6c0.1,0.1,0.1,0.3,0.2,0.4 l32.2,64.6l-14.4-3.1c-0.1,0-0.3,0-0.4-0.1c-0.2,0-0.4-0.1-0.6-0.1c-0.2,0-0.4,0-0.5,0c-0.2,0-0.4,0-0.6,0c-0.2,0-0.4,0-0.5,0 c-0.2,0-0.4,0-0.6,0c-0.2,0-0.4,0.1-0.6,0.1c-0.1,0-0.3,0-0.4,0.1L21.9,247.3c-4.6,1-7.9,5.1-7.9,9.8v82.5c0,5.5,4.5,10,10,10 s10-4.5,10-10v-74.4l134.7-28.8v224.5L34,489.6v-70.1c0-5.5-4.5-10-10-10s-10,4.5-10,10V502c0,3,1.4,5.9,3.7,7.8 c1.8,1.5,4,2.2,6.3,2.2c0.7,0,1.4-0.1,2.1-0.2l152.6-32.7l152.6,32.7c0.1,0,0.1,0,0.2,0c0.2,0,0.4,0.1,0.7,0.1c0.1,0,0.2,0,0.3,0 c0.3,0,0.6,0.1,1,0.1c0.3,0,0.6,0,1-0.1c0.1,0,0.2,0,0.3,0c0.2,0,0.4-0.1,0.7-0.1c0.1,0,0.1,0,0.2,0l154.7-33.1 c4.6-1,7.9-5.1,7.9-9.8v-82.5c0-5.5-4.5-10-10-10s-10,4.5-10,10v74.4l-134.7,28.8V265.1l134.7-28.8v70.1c0,5.5,4.5,10,10,10 s10-4.5,10-10v-82.5C498.1,220.9,496.8,218.1,494.4,216.2z M173.6,108.6c0-48.9,39.7-88.6,88.6-88.6s88.6,39.7,88.6,88.6 c0,12.3-2.5,24.2-7.4,35.4l-81.2,162.7L181,144C176.1,132.8,173.6,120.9,173.6,108.6z M188.7,236.3l17.9,3.8l46.6,93.4 c1.7,3.4,5.2,5.5,8.9,5.5s7.3-2.1,8.9-5.5l35.9-71.9l16.3,3.5v224.5l-134.7-28.8L188.7,236.3L188.7,236.3z"></path> <path class="st0" d="M326.5,108.6c0-35.5-28.8-64.3-64.3-64.3s-64.3,28.8-64.3,64.3s28.8,64.3,64.3,64.3S326.5,144.1,326.5,108.6z M217.9,108.6c0-24.4,19.9-44.3,44.3-44.3s44.3,19.9,44.3,44.3c0,24.4-19.9,44.3-44.3,44.3S217.9,133,217.9,108.6z"></path> <path class="st0" d="M24,389.5c5.5,0,10-4.5,10-10s-4.5-10-10-10s-10,4.5-10,10S18.5,389.5,24,389.5z"></path> <path class="st0" d="M488.1,336.4c-5.5,0-10,4.5-10,10s4.5,10,10,10s10-4.5,10-10S493.6,336.4,488.1,336.4z"></path> </g> </svg> 