<?xml version="1.0" encoding="UTF-8"?> <!-- Generator: Adobe Illustrator 24.0.2, SVG Export Plug-In . SVG Version: 6.00 Build 0) --> <svg xmlns="http://www.w3.org/2000/svg" xmlns:xlink="http://www.w3.org/1999/xlink" version="1.1" id="Capa_1" x="0px" y="0px" viewBox="0 0 480 586.2" style="enable-background:new 0 0 480 586.2;" xml:space="preserve"> <style type="text/css"> .st0{fill:#FFCF03;} </style> <path class="st0" d="M200.5,63.9h79.9v16h-79.9V63.9z"></path> <path class="st0" d="M200.5,95.8h79.9v16h-79.9V95.8z"></path> <path class="st0" d="M368.2,159.7h79.9v16h-79.9V159.7z"></path> <path class="st0" d="M368.2,191.7h79.9v16h-79.9V191.7z"></path> <path class="st0" d="M32.8,159.7h79.9v16H32.8V159.7z"></path> <path class="st0" d="M32.8,191.7h79.9v16H32.8V191.7z"></path> <path class="st0" d="M437.7,385.7c-2.3-2.3-5.7-3-8.7-1.7c-3,1.2-4.9,4.1-4.9,7.4v8h-31.9c-4.4,0-8,3.6-8,8v47.9c0,4.4,3.6,8,8,8 h31.9v8c0,3.2,1.9,6.1,4.9,7.4c3,1.2,6.4,0.5,8.7-1.7l39.9-39.9c3.1-3.1,3.1-8.2,0-11.3L437.7,385.7z M439.6,452.4 c-1.2-3.1-4.2-5.2-7.5-5.2h-31.9v-31.9h31.9c3.3,0,6.3-2.1,7.5-5.2l21.2,21.2L439.6,452.4z"></path> <path class="st0" d="M88.7,399.3H56.7v-8c0-3.2-1.9-6.1-4.9-7.4c-3-1.2-6.4-0.5-8.7,1.7L3.2,425.6c-3.1,3.1-3.1,8.2,0,11.3 l39.9,39.9c2.3,2.3,5.7,3,8.7,1.7c3-1.2,4.9-4.1,4.9-7.4v-8h31.9c4.4,0,8-3.6,8-8v-47.9C96.7,402.9,93.1,399.3,88.7,399.3z M80.7,447.2H48.8c-3.3,0-6.3,2.1-7.5,5.2l-21.2-21.2l21.2-21.2c1.2,3.1,4.2,5.2,7.5,5.2h31.9V447.2z"></path> <path class="st0" d="M337.7,419.1c-0.4-16.2-11.3-26.9-19.2-34.7c-2.3-2.3-7-6.9-7.6-8.6v-11.5c1.7-2.3,2.7-5.1,2.7-8v-7 c0-2.9-1-5.8-2.7-8.1c0,0,0,0,0-0.1l0-0.2c0-0.2,0-0.3-0.1-0.4c0-0.1,0-0.2-0.1-0.3c0-0.2-0.1-0.4-0.1-0.6c0,0,0,0,0-0.1l-0.1-0.2 c-0.1-0.2-0.1-0.4-0.2-0.6c0-0.1-0.1-0.3-0.2-0.5c-0.1-0.2-0.2-0.5-0.3-0.7c0,0,0,0,0,0c0-0.1-0.1-0.3-0.1-0.4c0,0,0-0.1-0.1-0.1 c0-0.1-0.1-0.2-0.2-0.4l-0.1-0.2c-0.2-0.4-0.4-0.8-0.6-1.1c-1.6-2.5-4-4.5-6.7-5.5c0,0-0.1,0-0.1,0l-0.2-0.1 c-0.3-0.1-0.6-0.2-0.9-0.3c0,0,0,0-0.1,0c0,0,0,0,0,0c-0.2-0.1-0.5-0.1-0.8-0.2c0,0-0.1,0-0.1,0c-0.4-0.1-0.8-0.1-1.1-0.2 c-0.3,0-0.6-0.1-0.9-0.1c-0.1,0-0.3,0-0.5,0l-22.4,0l-0.2,0c-0.2,0-0.4,0-0.6,0c-0.2,0-0.5,0-0.7,0.1c0,0-0.2,0-0.2,0 c-0.4,0-0.8,0.1-1.1,0.2c-5.1,1-9.4,4.6-11.1,9.5c0,0,0,0.1,0,0.1c0,0.1-0.1,0.2-0.1,0.4c-0.2,0.6-0.3,1.1-0.4,1.7 c-0.7,0.9-1.3,1.9-1.8,3c-0.6-0.6-1.1-1.1-1.6-1.6c-1.2-1.2-4.8-4.7-5.7-6.1v-43.8c1.4-2.1,2.2-4.6,2.2-7.2v-5.8 c0-2.7-0.8-5.3-2.3-7.4l-0.1-0.4c0-0.2-0.1-0.5-0.1-0.6l0-0.2c-0.1-0.2-0.1-0.5-0.2-0.7c0-0.1-0.1-0.3-0.1-0.4 c-0.1-0.2-0.2-0.5-0.3-0.7c-0.1-0.1-0.1-0.3-0.2-0.4c0-0.1-0.1-0.2-0.1-0.3c0-0.1-0.1-0.2-0.1-0.3c-0.2-0.4-0.4-0.8-0.6-1.1 c-1.5-2.4-3.8-4.3-6.5-5.3c0,0-0.1,0-0.1,0l-0.2-0.1c-0.3-0.1-0.6-0.2-0.7-0.2l-0.2-0.1c-0.2-0.1-0.5-0.1-0.7-0.2l-0.2,0 c-0.4-0.1-0.7-0.1-1.1-0.2c0,0,0,0,0,0c-0.3,0-0.5,0-0.8-0.1l-0.3,0c0,0-0.1,0-0.1,0c0,0-0.1,0-0.1,0H220c0,0-0.2,0-0.2,0 c-0.2,0-0.4,0-0.6,0c0,0,0,0,0,0c-0.2,0-0.4,0-0.6,0.1l0.4,3.5l0,0l-0.5-3.5c-0.4,0-0.7,0.1-1.1,0.2c-4.9,0.9-9,4.4-10.7,9.2 c0,0,0,0.1,0,0.1c0,0.1-0.1,0.2-0.1,0.4c-0.1,0.4-0.2,0.7-0.3,1.1c-1.7,2.2-2.6,4.9-2.6,7.7v5.8c0,2.6,0.8,5.1,2.2,7.2v43.8 c-0.9,1.4-4.3,4.6-5.6,5.8c-6.7,6.3-16.7,15.8-16.6,30.8l0.4,33.1h-17.1c-4.4,0-8.4,2.6-10.3,6.6c-5.2,11.3-9.7,23.7-13,36l-0.1,0.4 c-4.1,17.9,0.3,33.9,12.2,44c5.9,5.2,12.3,9.1,19,11.7l0.2,0.1c3.4,1.3,4.1,2,4.7,2.9c0.7,1.8,1,5.4,0.2,8.4 c-0.1,0.1-0.2,0.1-0.3,0.2c-1.3,0.9-3.6,1.8-5.7,2.6l1.3,3.3v0l-1.4-3.2c-0.7,0.3-1.4,0.5-2.1,0.8c-0.2,0.1-0.6,0.2-0.9,0.3 c-2,0.7-4.8,1.6-7.3,3c-4.9,3-7.5,8.3-6.6,13.7c0.9,5.2,4.8,9.1,10.3,10.2c0.7,0.1,1.5,0.2,2.2,0.2h83.2c0.6,0,1.3,0,2-0.1 c0.7,0.1,1.4,0.1,2.1,0.1h57.9c11.6,0,21.1-9.5,21.2-21.2l1.8-106.1C337.7,419.4,337.7,419.3,337.7,419.1z M271.7,343.5L271.7,343.5 L271.7,343.5L271.7,343.5z M272.1,527.4l1.4-145c1.1-2.2,1.6-4.3,1.6-6.5v-17.7c0-1.6-1.1-3-2.7-3.4v-4.1c1.5-0.4,2.7-1.8,2.7-3.4 l0-3.5v0H296v3.5c0,1.6,1.1,3,2.7,3.4v4.1c-1.5,0.4-2.7,1.8-2.7,3.4v17.7c0,7.2,5.8,13,12,19c7.1,7,14.5,14.3,14.8,24.5L321,525.5 c0,0,0,0,0,0c0,3.6-2.9,6.6-6.4,6.6h-43.2C271.9,530.6,272.1,529,272.1,527.4z M274.7,340.3l0.2,1.3l0,0.6l-0.1-0.7L274.7,340.3z M297.8,340.4l-0.3,1.3l0,0.1l0.1-0.5L297.8,340.4L297.8,340.4z M225.2,480.8c-5,4.8-10.6,8.1-19.4,11.4c-3.8,1.5-6.9,4.6-8.8,8.6 c-1.1,2.4-1.8,5.2-2.1,8.2c-0.3-3.1-1-6-2.2-8.3c0,0,0-0.1-0.1-0.1c-0.4-0.7-0.8-1.4-1.3-2.1c-3.2-4.4-7.5-6.4-11.3-7.8 c-5.1-2-10-5-14.7-9.1c-10.7-9-8.8-23.5-7.4-29.4c2.8-10.6,6.8-21.7,11.2-31.5h51.8c4.2,9.2,8.3,18.9,10.5,27.9 C235,463,232.9,473.5,225.2,480.8z M191.6,524.9c1.1-1.4,1.9-2.9,2.4-4.6c0.5-1.9,0.9-3.8,1.1-5.8c0.2,1.9,0.5,3.8,1.1,5.5 c1.2,3.6,3.4,6.6,6.6,8.6c2.1,1.4,4.5,2.5,6.9,3.5h-29.4c2.6-1,5.4-2.2,7.8-3.9C189.4,527.2,190.6,526.1,191.6,524.9z M210.7,516.1 c-0.2-0.1-0.3-0.2-0.5-0.7c-0.8-2.6-0.6-6.5,0.2-8.3c0.4-0.8,0.8-1.1,0.9-1.2c7.4-2.8,16-6.7,24.1-14.4c2.1-2,4-4.3,5.7-6.6 c1.7-2.5,3.1-5.2,4.1-8c3.4-9,3.6-19.7,0.6-31.9c-0.3-1.4-0.7-2.8-1.2-4.4c-1.1-3.8-2.5-7.8-4.2-12.2c-2.3-5.9-4.9-11.7-7-16.1 c-1.8-4-5.9-6.6-10.3-6.6h-24.3l-0.4-33.2c-0.1-8.5,6-14.2,11.9-19.8c5.3-5,10.2-9.7,10.2-16v-49.9c0-1.5-0.9-2.7-2.2-3.2V281 c1.3-0.5,2.2-1.8,2.2-3.2v-2.3h16v2.3c0,1.5,0.9,2.7,2.2,3.2v2.5c-1.3,0.5-2.2,1.8-2.2,3.2v49.9c0,6.2,4.9,11,10.1,16.1 c5.8,5.7,11.8,11.6,12,19.8l-1.5,154.7c0,2.2-1.5,4.2-3.6,4.7c-0.4,0.1-0.7,0.1-1.1,0.1h-19.4c-0.7-3.9-3.2-7.5-7-9.6 c-0.6-0.3-1.1-0.6-1.7-0.8l-1.2-0.4C218.9,519.9,213.9,518.2,210.7,516.1z M217.2,274.7l1.3,0.1l0.4,0.1h-0.1L217.2,274.7z M306.4,338.4L306.4,338.4L306.4,338.4L306.4,338.4z M264.5,340.1L264.5,340.1L264.5,340.1L264.5,340.1z M247.7,271.6L247.7,271.6 L247.7,271.6L247.7,271.6z"></path> <g> <path class="st0" d="M456,95.8h-95.8c-13.2,0-24,10.7-24,24v95.8c0,13.2,10.7,24,24,24h39.9v71.9c0,4.4-3.6,8-8,8H364 c-13.9-53.4-60.5-91.9-115.6-95.4v-80.3h39.9c13.2,0,24-10.7,24-24V24c0-13.2-10.7-24-24-24h-95.8c-13.2,0-24,10.7-24,24v95.8 c0,13.2,10.7,24,24,24h39.9V224c-55.1,3.5-101.7,42-115.6,95.4H88.7c-4.4,0-8-3.6-8-8v-71.9h39.9c13.2,0,24-10.7,24-24v-95.8 c0-13.2-10.7-24-24-24H24.8c-13.2,0-24,10.7-24,24v95.8c0,13.2,10.7,24,24,24h39.9v71.9c0,13.2,10.7,24,24,24h25.1 c-0.9,6.7-1.2,13.3-1.1,19.9c0.7-14.7,8.6-27.4,20.2-34.9c13.4-46.7,56.4-80.9,107.5-80.9s94.1,34.2,107.5,80.9 c11.6,7.4,19.5,20.2,20.2,34.9c0.2-6.6-0.2-13.3-1.1-19.9h25.1c13.2,0,24-10.7,24-24v-71.9H456c13.2,0,24-10.7,24-24v-95.8 C480,106.6,469.3,95.8,456,95.8z M16.8,119.8c0-4.4,3.6-8,8-8h95.8c4.4,0,8,3.6,8,8v8H16.8V119.8z M24.8,223.6c-4.4,0-8-3.6-8-8 v-71.9h111.8v71.9c0,4.4-3.6,8-8,8H24.8z M184.5,24c0-4.4,3.6-8,8-8h95.8c4.4,0,8,3.6,8,8v8H184.5V24z M192.5,127.8 c-4.4,0-8-3.6-8-8V47.9h111.8v71.9c0,4.4-3.6,8-8,8H192.5z M464,215.6c0,4.4-3.6,8-8,8h-95.8c-4.4,0-8-3.6-8-8v-71.9H464V215.6z M464,127.8H352.2v-8c0-4.4,3.6-8,8-8H456c4.4,0,8,3.6,8,8V127.8z"></path> <path class="st0" d="M351.2,541.7c0,14.8-12,26.9-26.9,26.9H156.5c-14.8,0-26.9-12-26.9-26.9V415.9c-10.5-18.3-16.4-39-16.9-60.5 c0,0.7-0.1,1.4-0.1,2.1v184.2c0,24.2,19.6,43.9,43.9,43.9h167.8c24.2,0,43.9-19.6,43.9-43.9V357.5c0-0.7,0-1.4-0.1-2.1 c-0.5,21.5-6.5,42.2-16.9,60.5V541.7z"></path> <path class="st0" d="M347.9,320.5c2.8,9.8,4.3,20.2,4.3,30.9c0,5.1-0.4,10.1-1,15.1v49.4c10.5-18.3,16.4-39,16.9-60.5 C367.4,340.7,359.5,327.9,347.9,320.5z"></path> <path class="st0" d="M129.6,366.6c-0.7-5-1-10-1-15.2c0-10.7,1.5-21.1,4.3-30.9c-11.6,7.4-19.5,20.2-20.2,34.9 c0.5,21.5,6.5,42.2,16.9,60.5V366.6z"></path> </g> </svg> 