<?xml version="1.0" encoding="UTF-8"?> <!-- Generator: Adobe Illustrator 24.0.2, SVG Export Plug-In . SVG Version: 6.00 Build 0) --> <svg xmlns="http://www.w3.org/2000/svg" xmlns:xlink="http://www.w3.org/1999/xlink" version="1.1" id="Capa_1" x="0px" y="0px" viewBox="0 0 512 512" style="enable-background:new 0 0 512 512;" xml:space="preserve"> <style type="text/css"> .st0{fill:#FFFFFF;} </style> <g> <path class="st0" d="M498.3,366.5L383.8,252c21.5-48.8,12.3-107.9-27.6-147.8c-52-52-136.1-52-188.1,0 c-51.8,51.9-51.8,136.2,0,188.1c41.2,41.2,101.6,49.1,149.8,26.8L431.8,433c18.4,18.4,48.1,18.4,66.5,0 C516.6,414.7,516.6,384.9,498.3,366.5L498.3,366.5z M189.3,271.1c-40.2-40.2-40.2-105.5,0-145.7c40.2-40.3,105.4-40.3,145.6,0 c40.2,40.2,40.2,105.5,0,145.7C294.7,311.3,229.6,311.3,189.3,271.1L189.3,271.1z M477,411.8c-6.6,6.6-17.4,6.6-24,0L344.2,302.9 c8.9-7,16.9-15.1,23.8-24.2l109,109.1C483.7,394.4,483.7,405.2,477,411.8z"></path> <path class="st0" d="M15,245h64c8.3,0,15-6.7,15-15c0-8.3-6.7-15-15-15H15c-8.3,0-15,6.7-15,15C0,238.2,6.7,245,15,245z"></path> <path class="st0" d="M15,309h88c8.3,0,15-6.7,15-15s-6.7-15-15-15H15c-8.3,0-15,6.7-15,15S6.7,309,15,309z"></path> <path class="st0" d="M15,373h151.9c8.3,0,15-6.7,15-15s-6.7-15-15-15H15c-8.3,0-15,6.7-15,15S6.7,373,15,373z"></path> <path class="st0" d="M342.8,407H15c-8.3,0-15,6.7-15,15c0,8.3,6.7,15,15,15h327.8c8.3,0,15-6.7,15-15 C357.8,413.7,351.1,407,342.8,407z"></path> </g> </svg> 