<svg xmlns="http://www.w3.org/2000/svg" width="51.993" height="40.403" viewBox="0 0 51.993 40.403">
  <g id="Grupo_89" data-name="Grupo 89" transform="translate(640.191 253.82)">
    <g id="Grupo_86" data-name="Grupo 86">
      <path id="Trazado_409" data-name="Trazado 409" d="M-631.283-217.553a1.586,1.586,0,0,0-.53-.348,1.776,1.776,0,0,0-.673-.125,2.461,2.461,0,0,0-.4.034,1.784,1.784,0,0,0-.408.117,1.562,1.562,0,0,0-.38.233,1.415,1.415,0,0,0-.313.375,1.544,1.544,0,0,0-.583-.557,1.717,1.717,0,0,0-.84-.2,1.984,1.984,0,0,0-.328.029,1.561,1.561,0,0,0-.337.1,1.376,1.376,0,0,0-.32.193,1.348,1.348,0,0,0-.278.309v-.52h-.893v4.253h.9v-2.357a1.275,1.275,0,0,1,.086-.482,1.044,1.044,0,0,1,.23-.353.966.966,0,0,1,.337-.215,1.149,1.149,0,0,1,.412-.073.887.887,0,0,1,.707.288,1.22,1.22,0,0,1,.251.826v2.366h.9v-2.357a1.256,1.256,0,0,1,.086-.482,1.041,1.041,0,0,1,.229-.353.971.971,0,0,1,.338-.215,1.149,1.149,0,0,1,.412-.073.889.889,0,0,1,.707.288,1.225,1.225,0,0,1,.251.826v2.366h.9v-2.672a1.841,1.841,0,0,0-.122-.684A1.566,1.566,0,0,0-631.283-217.553Z" fill="#1d1d1b"/>
      <path id="Trazado_410" data-name="Trazado 410" d="M-626.525-217.4a1.67,1.67,0,0,0-.551-.455,1.681,1.681,0,0,0-.785-.171,2.089,2.089,0,0,0-.835.167,2.091,2.091,0,0,0-.675.464,2.142,2.142,0,0,0-.452.708,2.389,2.389,0,0,0-.165.9,2.393,2.393,0,0,0,.165.9,2.162,2.162,0,0,0,.452.708,2.089,2.089,0,0,0,.675.463,2.089,2.089,0,0,0,.835.167,1.694,1.694,0,0,0,.785-.169,1.629,1.629,0,0,0,.551-.453v.511h.928v-4.253h-.928Zm-.036,2.153a1.289,1.289,0,0,1-.262.431,1.212,1.212,0,0,1-.4.286,1.274,1.274,0,0,1-.524.1,1.292,1.292,0,0,1-.54-.108,1.2,1.2,0,0,1-.4-.293,1.286,1.286,0,0,1-.253-.433,1.539,1.539,0,0,1-.089-.528,1.541,1.541,0,0,1,.089-.529,1.281,1.281,0,0,1,.253-.432,1.186,1.186,0,0,1,.4-.293,1.277,1.277,0,0,1,.54-.109,1.29,1.29,0,0,1,.524.1,1.214,1.214,0,0,1,.4.287,1.275,1.275,0,0,1,.262.43,1.513,1.513,0,0,1,.094.542A1.511,1.511,0,0,1-626.561-215.247Z" fill="#1d1d1b"/>
      <path id="Trazado_411" data-name="Trazado 411" d="M-621.333-215.795a2.287,2.287,0,0,0-1.087-.406l-.44-.067c-.1-.015-.189-.032-.275-.051a.914.914,0,0,1-.222-.077.427.427,0,0,1-.149-.125.3.3,0,0,1-.055-.186.421.421,0,0,1,.211-.366,1.058,1.058,0,0,1,.592-.14,2.234,2.234,0,0,1,.393.035,3.16,3.16,0,0,1,.366.089,2.638,2.638,0,0,1,.315.118,2.394,2.394,0,0,1,.24.122l.4-.724a2.747,2.747,0,0,0-.777-.331,3.7,3.7,0,0,0-.946-.117,2.613,2.613,0,0,0-.732.1,1.69,1.69,0,0,0-.553.271,1.184,1.184,0,0,0-.35.428,1.287,1.287,0,0,0-.122.569,1.049,1.049,0,0,0,.366.832,2.039,2.039,0,0,0,1.076.415l.444.058a1.371,1.371,0,0,1,.559.171.347.347,0,0,1,.178.3.424.424,0,0,1-.244.38,1.491,1.491,0,0,1-.724.14,2.748,2.748,0,0,1-.468-.036,2.357,2.357,0,0,1-.377-.1,1.854,1.854,0,0,1-.307-.138,2.306,2.306,0,0,1-.25-.166l-.431.7a2.252,2.252,0,0,0,.484.28,3.342,3.342,0,0,0,.5.167,3.107,3.107,0,0,0,.462.079c.145.014.272.02.381.02a3.018,3.018,0,0,0,.819-.1,1.839,1.839,0,0,0,.609-.286,1.27,1.27,0,0,0,.377-.439,1.221,1.221,0,0,0,.131-.562A1.015,1.015,0,0,0-621.333-215.795Z" fill="#1d1d1b"/>
      <path id="Trazado_412" data-name="Trazado 412" d="M-612.646-217.406a1.831,1.831,0,0,0-.635-.458,2.013,2.013,0,0,0-.815-.162,2.213,2.213,0,0,0-.859.162,1.951,1.951,0,0,0-.668.458,2.079,2.079,0,0,0-.435.708,2.574,2.574,0,0,0-.155.91,2.522,2.522,0,0,0,.16.919,2.034,2.034,0,0,0,.448.705,1.973,1.973,0,0,0,.688.453,2.342,2.342,0,0,0,.879.16,3.132,3.132,0,0,0,.921-.133,2.309,2.309,0,0,0,.828-.466l-.462-.662a2.054,2.054,0,0,1-.588.331,1.864,1.864,0,0,1-.641.118,1.5,1.5,0,0,1-.435-.063,1.129,1.129,0,0,1-.378-.193,1.167,1.167,0,0,1-.288-.335,1.363,1.363,0,0,1-.164-.493h3.142c.006-.053.011-.109.014-.168s0-.119,0-.178a2.632,2.632,0,0,0-.149-.908A2.128,2.128,0,0,0-612.646-217.406Zm-2.6,1.254a1.6,1.6,0,0,1,.124-.424,1.152,1.152,0,0,1,.229-.333.968.968,0,0,1,.333-.216,1.215,1.215,0,0,1,.442-.075.987.987,0,0,1,.723.275,1.324,1.324,0,0,1,.355.773Z" fill="#1d1d1b"/>
      <path id="Trazado_413" data-name="Trazado 413" d="M-600.321-217.4a1.667,1.667,0,0,0-.55-.455,1.683,1.683,0,0,0-.786-.171,2.081,2.081,0,0,0-.834.167,2.071,2.071,0,0,0-.675.464,2.162,2.162,0,0,0-.453.708,2.408,2.408,0,0,0-.164.9,2.412,2.412,0,0,0,.164.9,2.183,2.183,0,0,0,.453.708,2.068,2.068,0,0,0,.675.463,2.081,2.081,0,0,0,.834.167,1.7,1.7,0,0,0,.786-.169,1.626,1.626,0,0,0,.55-.453v.511h.928v-4.253h-.928Zm-.035,2.153a1.289,1.289,0,0,1-.262.431,1.206,1.206,0,0,1-.4.286,1.271,1.271,0,0,1-.524.1,1.288,1.288,0,0,1-.539-.108,1.214,1.214,0,0,1-.4-.293,1.3,1.3,0,0,1-.253-.433,1.565,1.565,0,0,1-.089-.528,1.566,1.566,0,0,1,.089-.529,1.3,1.3,0,0,1,.253-.432,1.2,1.2,0,0,1,.4-.293,1.272,1.272,0,0,1,.539-.109,1.287,1.287,0,0,1,.524.1,1.209,1.209,0,0,1,.4.287,1.275,1.275,0,0,1,.262.43,1.534,1.534,0,0,1,.093.542A1.533,1.533,0,0,1-600.356-215.247Z" fill="#1d1d1b"/>
      <path id="Trazado_414" data-name="Trazado 414" d="M-617.355-214.51a1.248,1.248,0,0,1-.441.084.764.764,0,0,1-.265-.044.545.545,0,0,1-.213-.14.693.693,0,0,1-.144-.246,1.115,1.115,0,0,1-.053-.364v-1.851h1.49v-.844h-1.49V-219.2h-.932v1.287h-.848v.844h.848v1.869a1.707,1.707,0,0,0,.4,1.249,1.522,1.522,0,0,0,1.126.4,2.015,2.015,0,0,0,.725-.124,3.09,3.09,0,0,0,.4-.187l-.317-.777A2.3,2.3,0,0,1-617.355-214.51Z" fill="#1d1d1b"/>
      <path id="Trazado_415" data-name="Trazado 415" d="M-608.979-218.026a1.715,1.715,0,0,0-.706.142,1.5,1.5,0,0,0-.528.527v-.558h-.842v4.253h.851V-216a1.425,1.425,0,0,1,.076-.484,1.042,1.042,0,0,1,.208-.36.886.886,0,0,1,.32-.222,1.081,1.081,0,0,1,.408-.075,1.791,1.791,0,0,1,.364.04,1.373,1.373,0,0,1,.187.05l.274-.888a1.729,1.729,0,0,0-.228-.057A2.344,2.344,0,0,0-608.979-218.026Z" fill="#1d1d1b"/>
      <path id="Trazado_416" data-name="Trazado 416" d="M-596.082-218.026a1.712,1.712,0,0,0-.706.142,1.5,1.5,0,0,0-.528.527v-.558h-.842v4.253h.851V-216a1.451,1.451,0,0,1,.075-.484,1.06,1.06,0,0,1,.209-.36.878.878,0,0,1,.32-.222,1.081,1.081,0,0,1,.408-.075,1.8,1.8,0,0,1,.364.04,1.4,1.4,0,0,1,.186.05l.275-.888A1.769,1.769,0,0,0-595.7-218,2.344,2.344,0,0,0-596.082-218.026Z" fill="#1d1d1b"/>
      <path id="Trazado_417" data-name="Trazado 417" d="M-591.749-219.643v2.243a1.667,1.667,0,0,0-.55-.455,1.683,1.683,0,0,0-.786-.171,2.081,2.081,0,0,0-.834.167,2.071,2.071,0,0,0-.675.464,2.16,2.16,0,0,0-.453.708,2.408,2.408,0,0,0-.164.9,2.412,2.412,0,0,0,.164.9,2.181,2.181,0,0,0,.453.708,2.068,2.068,0,0,0,.675.463,2.081,2.081,0,0,0,.834.167,1.7,1.7,0,0,0,.786-.169,1.626,1.626,0,0,0,.55-.453v.511h.928v-5.981Zm-.035,4.4a1.305,1.305,0,0,1-.262.431,1.216,1.216,0,0,1-.4.286,1.274,1.274,0,0,1-.524.1,1.288,1.288,0,0,1-.539-.108,1.193,1.193,0,0,1-.4-.293,1.3,1.3,0,0,1-.253-.433,1.566,1.566,0,0,1-.089-.528,1.568,1.568,0,0,1,.089-.529,1.3,1.3,0,0,1,.253-.432,1.18,1.18,0,0,1,.4-.293,1.272,1.272,0,0,1,.539-.109,1.29,1.29,0,0,1,.524.1,1.218,1.218,0,0,1,.4.287,1.29,1.29,0,0,1,.262.43,1.534,1.534,0,0,1,.093.542A1.533,1.533,0,0,1-591.784-215.247Z" fill="#1d1d1b"/>
      <path id="Trazado_418" data-name="Trazado 418" d="M-606.758-216.772a1.244,1.244,0,0,1,.421-.279,1.376,1.376,0,0,1,.529-.1h0a1.645,1.645,0,0,1,.581.1,1.387,1.387,0,0,1,.45.268l.446-.743a2.287,2.287,0,0,0-.565-.329,2.4,2.4,0,0,0-.912-.171,2.4,2.4,0,0,0-.913.171,2.2,2.2,0,0,0-.723.471,2.167,2.167,0,0,0-.477.708,2.24,2.24,0,0,0-.174.888,2.239,2.239,0,0,0,.174.887,2.146,2.146,0,0,0,.477.708,2.2,2.2,0,0,0,.723.471,2.4,2.4,0,0,0,.913.171,2.4,2.4,0,0,0,.912-.171,2.257,2.257,0,0,0,.565-.329l-.446-.743a1.407,1.407,0,0,1-.45.269,1.668,1.668,0,0,1-.581.1h0a1.4,1.4,0,0,1-.529-.1,1.247,1.247,0,0,1-.421-.28,1.291,1.291,0,0,1-.28-.431,1.451,1.451,0,0,1-.1-.552,1.452,1.452,0,0,1,.1-.553A1.3,1.3,0,0,1-606.758-216.772Z" fill="#1d1d1b"/>
    </g>
    <g id="Grupo_87" data-name="Grupo 87">
      <path id="Trazado_419" data-name="Trazado 419" d="M-588.866-214.285a.438.438,0,0,1,.173.034.46.46,0,0,1,.142.093.442.442,0,0,1,.1.138.414.414,0,0,1,.035.168.411.411,0,0,1-.035.168.446.446,0,0,1-.1.139.445.445,0,0,1-.142.094.438.438,0,0,1-.173.034.45.45,0,0,1-.177-.034.449.449,0,0,1-.143-.094.443.443,0,0,1-.094-.139.412.412,0,0,1-.035-.168.415.415,0,0,1,.035-.168.439.439,0,0,1,.094-.138.464.464,0,0,1,.143-.093A.451.451,0,0,1-588.866-214.285Zm0,.747a.308.308,0,0,0,.121-.024.326.326,0,0,0,.1-.067.322.322,0,0,0,.066-.1.314.314,0,0,0,.024-.123.316.316,0,0,0-.024-.122.306.306,0,0,0-.066-.1.326.326,0,0,0-.1-.067.307.307,0,0,0-.121-.024.324.324,0,0,0-.125.024.344.344,0,0,0-.1.067.306.306,0,0,0-.066.1.316.316,0,0,0-.024.122.314.314,0,0,0,.024.123.322.322,0,0,0,.066.1.344.344,0,0,0,.1.067A.324.324,0,0,0-588.866-213.538Zm.025-.506a.179.179,0,0,1,.12.036.117.117,0,0,1,.041.094.1.1,0,0,1-.03.076.148.148,0,0,1-.085.041l.12.138h-.13l-.107-.135h-.012v.135h-.109v-.385Zm-.083.094v.07h.081a.081.081,0,0,0,.038-.007.029.029,0,0,0,.014-.027.028.028,0,0,0-.014-.027.069.069,0,0,0-.038-.009Z" fill="#1d1d1b"/>
    </g>
    <g id="Grupo_88" data-name="Grupo 88">
      <path id="Trazado_420" data-name="Trazado 420" d="M-620.309-237.793a16,16,0,0,1,6.085-12.566,15.949,15.949,0,0,0-9.941-3.461,16.027,16.027,0,0,0-16.026,16.027,16.026,16.026,0,0,0,16.026,16.027,15.949,15.949,0,0,0,9.941-3.461A15.993,15.993,0,0,1-620.309-237.793Z" fill="#e20d17"/>
      <ellipse id="Elipse_8" data-name="Elipse 8" cx="6.086" cy="12.566" rx="6.086" ry="12.566" transform="translate(-620.309 -250.359)" fill="#ea610a"/>
      <path id="Trazado_421" data-name="Trazado 421" d="M-589.343-229.124v-.469h-.189v-.129h.519v.129h-.189v.469Zm1.005,0v-.415l-.135.358h-.148l-.135-.357v.414h-.14v-.6h.2l.149.383.147-.383h.2v.6Z" fill="#f59e00"/>
      <path id="Trazado_422" data-name="Trazado 422" d="M-604.283-253.82a15.954,15.954,0,0,0-9.941,3.461,15.994,15.994,0,0,1,6.086,12.566,15.991,15.991,0,0,1-6.086,12.566,15.954,15.954,0,0,0,9.941,3.461,16.026,16.026,0,0,0,16.027-16.027A16.027,16.027,0,0,0-604.283-253.82Z" fill="#f59e00"/>
    </g>
  </g>
</svg>
