<svg xmlns="http://www.w3.org/2000/svg" xmlns:xlink="http://www.w3.org/1999/xlink" width="80.62" height="26.052" viewBox="0 0 80.62 26.052">
  <defs>
    <linearGradient id="linear-gradient" x1="-2.251" y1="0.518" x2="0.982" y2="0.498" gradientUnits="objectBoundingBox">
      <stop offset="0" stop-color="#262860"/>
      <stop offset="1" stop-color="#3c429a"/>
    </linearGradient>
    <linearGradient id="linear-gradient-2" x1="-1.738" y1="0.511" x2="2.08" y2="0.492" xlink:href="#linear-gradient"/>
    <linearGradient id="linear-gradient-3" x1="0.147" y1="0.502" x2="2.623" y2="0.482" xlink:href="#linear-gradient"/>
    <linearGradient id="linear-gradient-4" x1="-1.967" y1="0.508" x2="4.38" y2="0.488" xlink:href="#linear-gradient"/>
  </defs>
  <g id="Grupo_90" data-name="Grupo 90" transform="translate(572.57 247.921)">
    <path id="Trazado_423" data-name="Trazado 423" d="M-491.95-222.288h-6.069c-.222-1.067-.46-2.111-.648-3.164-.078-.437-.218-.606-.706-.6-2.433.031-4.868.024-7.3,0a.551.551,0,0,0-.627.455c-.336,1-.7,2-1.077,2.985-.051.135-.22.319-.336.32-2.193.019-4.387.014-6.644.014.411-.991.8-1.936,1.2-2.88q4.242-10.122,8.488-20.245a2.987,2.987,0,0,1,3.111-2.073h5.329c.176.822.353,1.633.523,2.445q2.088,10,4.175,20.008c.179.854.39,1.7.586,2.552Zm-7.943-8.949c-.647-3.1-1.285-6.161-1.923-9.22l-.078-.015-3.348,9.235Z" fill="url(#linear-gradient)"/>
    <path id="Trazado_424" data-name="Trazado 424" d="M-518.39-247.921c.8.149,1.608.271,2.4.454.724.167,1.433.4,2.2.619q-.582,2.72-1.137,5.313c-1.014-.3-1.984-.64-2.981-.86a8.457,8.457,0,0,0-4.125-.036,4.188,4.188,0,0,0-1.552.826,1.415,1.415,0,0,0-.044,2.238,9.625,9.625,0,0,0,1.662,1.2c1.328.8,2.722,1.493,4.013,2.346a5.947,5.947,0,0,1,2.861,4.253,7.584,7.584,0,0,1-3.584,7.745,12.277,12.277,0,0,1-5.776,1.866,20.637,20.637,0,0,1-8.433-.956c-.184-.06-.363-.136-.542-.209a1.49,1.49,0,0,1-.182-.112c.387-1.816.776-3.634,1.175-5.5.468.2.907.409,1.356.59a11.746,11.746,0,0,0,6.653.829,4.738,4.738,0,0,0,1.712-.715,1.813,1.813,0,0,0,.2-2.984,16.079,16.079,0,0,0-2.2-1.445c-1.169-.712-2.412-1.319-3.519-2.117a5.9,5.9,0,0,1-2.641-4.2,7.177,7.177,0,0,1,2.8-6.626,11.749,11.749,0,0,1,6.253-2.427,3.277,3.277,0,0,0,.377-.09Z" fill="url(#linear-gradient-2)"/>
    <path id="Trazado_425" data-name="Trazado 425" d="M-541.991-247.452c-.341.821-.664,1.6-.991,2.383q-4.684,11.178-9.362,22.358a.617.617,0,0,1-.689.445c-1.972-.016-3.944-.022-5.915.005-.418.006-.554-.141-.65-.516-1.671-6.513-3.371-13.019-5.023-19.537a3.43,3.43,0,0,0-2.048-2.513,32.61,32.61,0,0,0-5.65-1.827c-.086-.02-.171-.042-.251-.062.01-.756.01-.756.728-.756q5.176,0,10.351,0a3,3,0,0,1,3.127,2.571q1.314,6.878,2.6,13.762c.038.2.081.4.139.682.089-.168.151-.262.192-.365q3.215-8.13,6.419-16.264a.519.519,0,0,1,.579-.394c2,.016,4,.007,6,.008C-542.3-247.471-542.174-247.46-541.991-247.452Z" fill="url(#linear-gradient-3)"/>
    <path id="Trazado_426" data-name="Trazado 426" d="M-544.6-222.273c1.8-8.424,3.593-16.788,5.387-25.172h6.537c-.272,1.277-.538,2.529-.806,3.782q-2.221,10.387-4.432,20.779c-.1.481-.273.634-.772.624-1.792-.034-3.585-.013-5.377-.013Z" fill="url(#linear-gradient-4)"/>
  </g>
</svg>
